<?xml version="1.0" standalone="no"?>
<!DOCTYPE svg PUBLIC "-//W3C//DTD SVG 20010904//EN"
 "http://www.w3.org/TR/2001/REC-SVG-20010904/DTD/svg10.dtd">
<svg version="1.0" xmlns="http://www.w3.org/2000/svg"
 width="576.000000pt" height="660.000000pt" viewBox="0 0 576.000000 660.000000"
 preserveAspectRatio="xMidYMid meet">

<g transform="translate(0.000000,660.000000) scale(0.100000,-0.100000)"
fill="#000000" stroke="none">
<path d="M2645 5889 c-189 -25 -439 -100 -604 -184 -270 -135 -532 -368 -702
-623 -221 -330 -320 -680 -306 -1081 16 -477 182 -876 503 -1211 266 -277 582
-454 959 -537 123 -26 143 -28 370 -28 224 0 250 2 379 28 407 82 772 300
1044 622 351 416 503 1004 397 1534 -14 69 -30 142 -36 161 -87 285 -234 541
-430 745 -314 326 -641 495 -1101 570 -102 16 -356 18 -473 4z m502 -95 c118
-17 308 -73 433 -128 209 -92 370 -204 545 -380 180 -181 297 -359 389 -592
163 -413 151 -933 -30 -1337 -104 -230 -208 -381 -385 -554 -252 -246 -578
-415 -929 -479 -113 -21 -367 -29 -493 -15 -297 33 -632 169 -881 358 -137
105 -298 279 -395 428 -65 100 -162 297 -195 397 -61 188 -79 299 -84 521 -5
232 3 312 49 485 38 144 64 212 134 353 60 119 154 259 251 373 106 125 296
276 466 372 167 94 436 184 623 207 88 11 406 6 502 -9z"/>
<path d="M2770 5424 c-19 -8 -53 -35 -76 -59 l-41 -44 -39 19 c-74 38 -154 21
-222 -48 -26 -26 -52 -55 -57 -65 -10 -18 -12 -18 -74 3 -175 58 -342 27 -473
-90 -150 -134 -172 -370 -34 -370 39 0 54 9 89 58 36 51 105 92 152 92 32 0
105 -20 105 -29 0 -4 -33 -18 -72 -31 -131 -44 -215 -115 -272 -228 -33 -65
-33 -75 5 -106 61 -51 176 -67 292 -40 25 6 27 4 27 -23 0 -16 11 -52 25 -79
24 -46 24 -51 10 -87 -43 -107 6 -230 109 -278 26 -12 30 -20 31 -59 5 -119
113 -211 231 -197 40 4 44 2 52 -22 12 -35 61 -84 105 -105 51 -23 120 -20
177 8 l48 24 48 -24 c99 -50 209 -22 271 70 32 47 33 48 90 49 77 3 129 31
171 91 25 38 32 59 32 95 0 46 1 48 45 69 54 26 99 85 115 152 12 50 10 69
-17 131 -14 35 -14 39 6 66 12 16 24 47 27 68 9 66 8 65 60 49 26 -8 66 -14
90 -14 64 0 169 36 193 66 19 24 19 28 5 62 -57 137 -162 226 -321 273 -24 7
-43 15 -43 19 0 12 40 20 98 20 69 0 124 -29 164 -85 35 -50 69 -66 114 -53
69 18 87 111 45 221 -26 67 -111 165 -178 204 -116 67 -259 81 -390 38 -42
-14 -76 -24 -77 -23 -47 83 -117 136 -193 145 -39 4 -58 1 -92 -17 l-43 -21
-34 39 c-48 57 -106 82 -185 82 -35 -1 -80 -8 -99 -16z m197 -67 c37 -19 73
-62 73 -87 0 -10 7 -23 15 -30 13 -11 19 -9 38 7 35 33 66 45 113 45 85 0 154
-67 154 -148 l0 -44 40 0 c111 0 180 -93 135 -180 -14 -27 -15 -40 -6 -76 9
-35 8 -51 -2 -77 -46 -108 -220 -80 -229 36 -4 56 -31 63 -48 12 -20 -61 -93
-82 -166 -47 -36 16 -37 16 -48 -3 -72 -128 -254 -137 -316 -15 -23 45 -26 47
-51 24 -10 -9 -39 -19 -63 -21 -56 -7 -91 14 -112 63 -22 52 -47 42 -55 -20
-6 -54 -38 -89 -91 -100 -37 -7 -102 19 -122 49 -17 26 -21 101 -7 124 6 8 2
29 -10 56 -40 90 23 175 130 175 40 0 41 1 41 35 0 48 34 112 71 134 67 41
138 34 192 -17 31 -30 36 -27 71 39 48 89 154 117 253 66z m-931 -218 c-9 -21
-16 -66 -16 -99 0 -56 -2 -60 -22 -60 -13 0 -32 -3 -44 -6 -17 -4 -22 1 -32
34 -17 55 -15 127 3 145 24 24 117 50 123 35 2 -5 -3 -27 -12 -49z m165 44
c38 -9 69 -21 69 -27 0 -6 -17 -19 -38 -28 -47 -22 -80 -71 -88 -131 -7 -52
-7 -52 -53 -36 -30 11 -31 13 -31 67 1 63 19 123 46 153 21 23 11 23 95 2z
m1456 -33 c13 -25 26 -73 29 -107 l7 -61 -42 -21 c-46 -24 -46 -24 -54 47 -6
52 -47 109 -93 128 -30 13 -46 33 -26 34 4 1 30 7 57 15 78 22 95 17 122 -35z
m135 23 c43 -17 53 -46 42 -120 -10 -72 -18 -82 -62 -79 l-37 2 -6 65 c-4 35
-14 82 -23 103 -9 21 -16 43 -16 48 0 11 48 2 102 -19z m-1903 -186 c14 -37
15 -34 -19 -52 -42 -22 -47 -20 -70 25 -29 57 -25 77 22 124 l42 41 7 -55 c4
-30 12 -68 18 -83z m2065 69 c9 -14 16 -33 16 -42 0 -20 -47 -104 -58 -104 -4
1 -20 11 -35 24 l-28 23 15 60 c9 34 16 71 16 83 l0 21 29 -20 c15 -11 36 -32
45 -45z m-2180 -130 c22 -38 24 -49 15 -70 -25 -54 -69 -38 -69 25 0 35 14 89
24 89 2 0 16 -20 30 -44z m2246 -5 c7 -27 7 -48 -1 -70 -13 -38 -33 -37 -57 1
-15 25 -14 29 8 71 13 25 28 43 32 41 4 -3 12 -22 18 -43z m-1865 -120 c0 -7
-27 -23 -61 -35 -33 -12 -77 -32 -97 -45 -37 -23 -84 -78 -74 -87 3 -3 35 12
72 35 37 22 89 45 117 51 47 10 53 9 75 -12 31 -29 29 -40 -12 -77 -80 -70
-192 -105 -284 -90 -69 11 -89 28 -73 64 39 86 144 171 242 197 73 19 95 19
95 -1z m1525 -1 c68 -18 131 -54 179 -101 36 -37 81 -105 81 -124 0 -3 -16
-13 -35 -21 -51 -21 -154 -18 -220 7 -51 19 -155 91 -155 107 0 4 10 20 23 36
l23 28 59 -13 c39 -9 83 -29 124 -57 68 -46 84 -48 57 -7 -35 53 -139 113
-198 114 -20 1 -28 6 -28 19 0 24 10 33 29 28 9 -3 36 -10 61 -16z m-1156 -95
c22 -17 92 -20 129 -6 21 8 29 5 53 -21 70 -73 179 -91 271 -45 26 14 56 34
67 46 16 18 26 20 77 14 46 -4 69 -2 99 12 l41 18 32 -31 c18 -17 44 -35 59
-41 30 -11 29 -4 7 -151 -15 -100 -64 -247 -110 -330 -48 -85 -162 -206 -225
-238 -22 -11 -67 -26 -100 -33 -121 -24 -260 40 -366 171 -99 123 -188 368
-188 520 0 46 2 50 34 65 18 9 44 27 57 41 26 28 36 29 63 9z m-219 -147 c36
-441 336 -789 629 -730 198 40 364 214 450 472 19 58 40 146 46 195 7 50 15
104 19 120 l7 30 24 -28 c13 -15 45 -41 71 -58 36 -23 48 -37 52 -62 6 -46 -8
-86 -44 -123 l-32 -33 22 -26 c11 -15 25 -43 31 -63 20 -72 -31 -173 -93 -186
-15 -3 -38 -8 -51 -11 -23 -5 -24 -8 -19 -63 6 -66 -9 -107 -53 -141 -31 -24
-116 -29 -159 -9 -31 14 -34 11 -46 -44 -16 -70 -75 -118 -143 -118 -47 0 -80
14 -117 50 l-32 30 -33 -34 c-83 -86 -232 -41 -250 75 -4 22 -10 42 -15 45 -4
2 -30 -3 -57 -11 -40 -13 -57 -14 -90 -6 -72 20 -123 109 -102 180 12 43 9 47
-38 55 -109 17 -156 138 -93 238 l29 45 -39 37 c-35 32 -39 41 -39 84 0 55 8
66 68 107 24 16 48 37 53 47 5 10 16 18 23 18 10 0 16 -23 21 -82z"/>
<path d="M2510 4510 c-37 -37 -15 -110 32 -110 23 0 48 33 48 63 0 27 -30 67
-50 67 -5 0 -19 -9 -30 -20z"/>
<path d="M3182 4522 c-37 -24 -29 -113 11 -120 51 -10 79 82 35 112 -26 18
-28 19 -46 8z"/>
<path d="M2746 4195 c-5 -15 43 -71 77 -90 24 -13 32 -84 11 -92 -8 -3 -31 6
-52 21 -22 15 -40 22 -45 17 -26 -26 39 -76 111 -87 71 -11 198 50 171 82 -16
20 -27 18 -61 -11 -16 -14 -39 -25 -50 -25 -19 0 -20 4 -14 42 4 24 14 47 23
52 26 14 93 78 93 87 0 24 -33 17 -76 -15 -26 -20 -54 -36 -64 -36 -9 0 -35
16 -57 35 -45 38 -58 42 -67 20z"/>
<path d="M2390 1941 c-86 -19 -106 -44 -48 -59 l33 -8 3 -310 2 -310 -36 -17
c-64 -31 -39 -42 104 -44 121 -3 132 -1 132 15 0 12 -12 21 -32 27 l-33 10 -3
358 -2 357 -23 -1 c-12 -1 -56 -9 -97 -18z"/>
<path d="M1630 1900 c0 -11 3 -20 8 -21 27 -3 46 -9 56 -19 13 -13 20 -330 10
-497 l-7 -111 -39 -16 c-24 -9 -38 -20 -36 -28 7 -19 396 -18 453 1 67 22 115
59 136 104 49 109 -2 226 -110 254 -46 12 -49 26 -7 41 112 41 139 188 48 260
-56 45 -98 52 -314 52 -191 0 -198 -1 -198 -20z m356 -46 c19 -9 41 -29 49
-45 22 -42 19 -121 -5 -152 -26 -33 -96 -59 -146 -55 l-39 3 -3 119 c-1 66 0
126 2 133 8 19 100 17 142 -3z m38 -329 c78 -51 74 -207 -6 -259 -14 -9 -52
-16 -98 -17 l-75 -2 -3 143 c-1 79 -1 149 2 155 6 18 146 2 180 -20z"/>
<path d="M3903 1828 l-53 -21 0 -57 0 -56 -37 -10 c-28 -7 -39 -15 -41 -31 -3
-21 1 -23 37 -23 l41 0 0 -161 c0 -241 18 -279 134 -279 40 0 73 6 96 18 68
37 67 81 -3 60 -49 -15 -83 3 -98 51 -5 20 -9 97 -7 171 l3 135 73 3 72 3 0
29 0 29 -72 3 -73 3 -3 78 c-2 42 -6 77 -10 76 -4 0 -31 -10 -59 -21z"/>
<path d="M2818 1690 c-48 -14 -106 -69 -134 -126 -68 -140 -2 -322 134 -368
95 -33 188 -13 265 57 43 39 46 43 32 61 -15 19 -15 19 -37 -1 -57 -52 -135
-61 -205 -25 -48 25 -70 61 -80 127 l-6 45 172 0 171 0 0 33 c0 80 -43 157
-106 187 -43 21 -152 26 -206 10z m126 -44 c35 -15 56 -54 56 -107 l0 -29
-105 0 c-118 0 -117 0 -88 71 15 39 61 79 91 79 7 0 28 -6 46 -14z"/>
<path d="M3377 1686 c-48 -17 -105 -61 -119 -91 -17 -39 -4 -55 45 -55 42 0
44 1 56 40 14 47 43 70 89 70 53 0 82 -37 82 -104 0 -52 -2 -56 -27 -62 -152
-34 -201 -54 -242 -98 -19 -21 -25 -37 -25 -75 0 -63 22 -95 78 -116 39 -15
52 -16 97 -5 30 7 66 25 87 44 23 20 37 27 39 19 18 -52 89 -76 157 -53 28 9
36 17 36 36 0 21 -4 23 -23 19 -43 -11 -49 12 -51 183 -1 178 -12 212 -76 244
-42 22 -148 23 -203 4z m153 -310 c0 -69 -2 -76 -26 -95 -35 -28 -97 -28 -124
-1 -26 26 -25 73 3 104 18 21 106 62 140 65 4 1 7 -32 7 -73z"/>
<path d="M1127 1022 c-10 -10 -17 -27 -17 -38 1 -13 6 -8 15 15 14 31 18 33
50 28 21 -3 33 -2 30 4 -10 16 -61 10 -78 -9z"/>
<path d="M1263 965 c0 -44 2 -63 4 -42 2 20 10 37 16 37 9 0 9 2 0 8 -6 4 -13
23 -16 42 -2 19 -4 -1 -4 -45z"/>
<path d="M1433 965 c0 -44 2 -61 4 -37 2 23 2 59 0 80 -2 20 -4 1 -4 -43z"/>
<path d="M1851 1022 c30 -25 20 -52 -21 -52 -27 0 -30 3 -30 30 0 17 -3 30 -7
30 -5 0 -9 -32 -10 -70 -2 -41 1 -70 7 -70 6 0 10 14 10 30 0 22 5 30 18 30
10 0 26 -13 35 -30 10 -16 23 -30 28 -30 6 0 1 13 -10 29 -20 28 -20 28 -1 46
11 10 20 22 20 27 0 12 -38 48 -51 48 -6 0 -1 -8 12 -18z"/>
<path d="M1940 1032 c0 -4 18 -6 40 -4 22 2 40 6 40 8 0 2 -18 4 -40 4 -22 0
-40 -3 -40 -8z"/>
<path d="M2079 1003 c-1 -21 -2 -55 -3 -75 -1 -21 1 -38 5 -38 5 0 9 26 11 57
l3 57 38 -57 c20 -31 39 -57 42 -57 3 0 4 33 3 73 l-1 72 -6 -60 -6 -60 -33
57 c-43 73 -52 78 -53 31z"/>
<path d="M2241 1024 c0 -11 3 -14 6 -6 3 7 2 16 -1 19 -3 4 -6 -2 -5 -13z"/>
<path d="M2309 1023 c-12 -16 -12 -17 1 -7 8 7 24 14 35 17 19 4 19 5 -1 6
-12 0 -28 -7 -35 -16z"/>
<path d="M2520 1025 c-19 -23 -7 -49 33 -68 20 -9 37 -21 37 -27 0 -16 -39
-31 -67 -25 -24 5 -25 4 -10 -5 24 -15 68 -9 81 13 15 24 -3 49 -43 61 -25 7
-31 14 -29 30 2 16 10 21 36 21 17 0 32 3 32 7 0 14 -57 8 -70 -7z"/>
<path d="M2650 965 l0 -75 43 1 42 2 -35 6 c-29 5 -36 11 -38 34 -3 24 0 27
30 28 l33 1 -30 7 c-23 5 -31 12 -33 33 -3 24 0 27 35 31 l38 4 -42 1 -43 2 0
-75z"/>
<path d="M2801 1014 c-26 -33 -27 -85 -3 -107 21 -19 59 -22 82 -7 10 7 4 8
-20 4 -44 -7 -64 13 -63 62 1 46 20 67 54 62 16 -3 26 -1 23 4 -11 17 -53 7
-73 -18z"/>
<path d="M2937 978 c6 -85 8 -88 46 -88 48 0 57 15 55 89 l-2 66 -3 -60 c-5
-69 -16 -87 -52 -83 -25 3 -26 6 -29 71 -2 37 -7 67 -11 67 -5 0 -7 -28 -4
-62z"/>
<path d="M3101 963 c1 -50 4 -67 8 -48 9 44 44 46 62 4 7 -18 15 -27 17 -21 2
6 -2 20 -8 32 -8 14 -8 25 -1 33 7 9 0 11 -30 9 -40 -4 -47 5 -33 42 9 23 51
20 64 -5 7 -11 14 -18 17 -15 14 13 -32 46 -64 46 l-33 0 1 -77z"/>
<path d="M3253 965 c0 -44 2 -61 4 -37 2 23 2 59 0 80 -2 20 -4 1 -4 -43z"/>
<path d="M3325 1033 c11 -2 26 -12 33 -21 13 -16 13 -15 10 3 -2 14 -12 21
-33 22 -18 1 -22 -1 -10 -4z"/>
<path d="M3531 1019 c-7 -12 -10 -23 -8 -26 3 -3 11 5 17 17 15 28 8 35 -9 9z"/>
<path d="M3683 1033 c-7 -2 -13 -9 -13 -15 0 -6 6 -6 15 2 8 7 24 10 35 7 11
-3 20 -1 20 4 0 9 -36 11 -57 2z"/>
<path d="M3790 1039 c0 -4 11 -27 25 -50 14 -24 25 -57 26 -74 1 -29 2 -29 8
6 4 20 17 53 30 74 29 49 20 57 -10 9 -20 -34 -24 -36 -33 -20 -16 27 -45 62
-46 55z"/>
<path d="M3971 1036 c12 -10 60 -16 54 -6 -3 5 -18 10 -32 10 -15 0 -24 -2
-22 -4z"/>
<path d="M4088 1033 c20 -4 22 -10 22 -74 0 -39 4 -69 10 -69 6 0 10 30 10 69
0 64 2 70 23 74 12 2 -3 4 -33 4 -30 0 -45 -2 -32 -4z"/>
<path d="M4215 1030 c-3 -5 -1 -18 4 -27 9 -16 10 -16 11 4 0 18 7 22 43 26
l42 4 -47 1 c-26 1 -50 -2 -53 -8z"/>
<path d="M4360 1008 c0 -24 3 -29 9 -19 7 11 13 5 25 -24 9 -20 16 -41 16 -46
0 -22 21 -17 31 8 32 82 33 82 39 18 l7 -60 1 78 c1 42 0 77 -4 77 -3 0 -17
-26 -31 -57 l-26 -58 -25 58 c-28 64 -42 72 -42 25z"/>
<path d="M4563 1033 c-7 -2 -13 -17 -13 -33 0 -24 6 -30 35 -40 23 -8 35 -18
35 -30 0 -23 -36 -36 -55 -20 -7 6 -16 7 -19 2 -8 -14 4 -22 35 -22 42 0 59
10 59 35 0 26 -14 40 -53 49 -22 5 -28 12 -25 29 2 17 10 22 35 22 17 0 29 3
26 7 -5 9 -41 9 -60 1z"/>
<path d="M1363 960 c0 -41 2 -58 4 -37 2 20 2 54 0 75 -2 20 -4 3 -4 -38z"/>
<path d="M1502 963 c-2 -64 0 -73 16 -73 11 0 13 3 5 8 -7 4 -14 37 -16 72
l-3 65 -2 -72z"/>
<path d="M1632 963 c-2 -79 -2 -79 56 -67 22 5 34 14 41 35 11 33 -2 84 -24
93 -11 4 -11 0 1 -22 20 -39 17 -69 -8 -86 -45 -32 -57 -22 -61 52 l-3 67 -2
-72z"/>
<path d="M3943 1014 c-8 -23 9 -47 38 -54 32 -8 38 -46 10 -55 -12 -3 -31 -3
-42 0 -15 5 -19 4 -15 -4 11 -16 72 -13 90 5 22 22 5 49 -40 64 -30 10 -35 16
-31 36 5 27 -1 32 -10 8z"/>
<path d="M3460 1019 c0 -4 7 -20 15 -35 8 -16 15 -45 16 -64 1 -35 1 -35 12
10 8 28 9 46 2 49 -5 2 -17 14 -27 25 -9 12 -17 18 -18 15z"/>
<path d="M1942 957 c-1 -26 -4 -52 -7 -57 -4 -6 15 -10 45 -10 32 0 49 4 45
10 -3 6 -22 10 -41 10 -29 0 -34 3 -34 24 0 20 6 25 33 29 l32 4 -32 1 c-21 1
-33 8 -35 20 -3 9 -5 -5 -6 -31z"/>
<path d="M3670 986 c0 -8 14 -19 30 -25 58 -20 46 -68 -14 -55 -19 4 -26 3
-22 -5 10 -16 71 -14 85 3 17 20 0 49 -44 75 -26 15 -35 17 -35 7z"/>
<path d="M2300 984 c0 -2 18 -13 40 -24 22 -11 40 -25 40 -30 0 -15 -40 -32
-61 -27 -10 3 -17 1 -13 -4 8 -13 48 -11 68 4 28 20 12 52 -34 70 -22 8 -40
14 -40 11z"/>
<path d="M4220 965 c0 -7 14 -9 35 -7 19 2 35 5 35 7 0 2 -16 5 -35 7 -21 2
-35 0 -35 -7z"/>
<path d="M1111 950 c-2 -29 29 -60 59 -60 16 0 32 5 35 10 4 7 -2 9 -19 4 -29
-7 -53 8 -66 41 -6 13 -9 15 -9 5z"/>
<path d="M4210 899 c0 -5 23 -9 52 -9 28 0 48 3 44 8 -11 10 -96 11 -96 1z"/>
<path d="M1548 893 c6 -2 18 -2 25 0 6 3 1 5 -13 5 -14 0 -19 -2 -12 -5z"/>
</g>
</svg>
